<svg width="7" height="12" viewBox="0 0 7 12" fill="none" xmlns="http://www.w3.org/2000/svg">
<path d="M6.53063 6.5306L1.53063 11.5306C1.38973 11.6715 1.19864 11.7506 0.999378 11.7506C0.800121 11.7506 0.609024 11.6715 0.468128 11.5306C0.327232 11.3897 0.248077 11.1986 0.248077 10.9993C0.248077 10.8001 0.327232 10.609 0.468128 10.4681L4.9375 5.99997L0.469378 1.5306C0.399614 1.46083 0.344273 1.37801 0.306517 1.28686C0.26876 1.19571 0.249327 1.09801 0.249327 0.999348C0.249327 0.900686 0.26876 0.802989 0.306517 0.711837C0.344273 0.620685 0.399614 0.537863 0.469378 0.468098C0.539143 0.398333 0.621966 0.342993 0.713118 0.305236C0.80427 0.26748 0.901966 0.248047 1.00063 0.248047C1.09929 0.248047 1.19699 0.26748 1.28814 0.305236C1.37929 0.342993 1.46211 0.398333 1.53188 0.468098L6.53188 5.4681C6.60172 5.53786 6.6571 5.62072 6.69484 5.71193C6.73259 5.80313 6.75196 5.9009 6.75184 5.99961C6.75173 6.09832 6.73213 6.19603 6.69417 6.28715C6.65621 6.37827 6.60063 6.461 6.53063 6.5306Z" fill="#9B9999"/>
</svg>
