<svg width="24" height="24" viewBox="0 0 24 24" fill="none" xmlns="http://www.w3.org/2000/svg">
<path d="M13.125 11.9997V15.7497C13.125 16.0481 13.0065 16.3342 12.7955 16.5452C12.5845 16.7562 12.2984 16.8747 12 16.8747C11.7016 16.8747 11.4155 16.7562 11.2045 16.5452C10.9935 16.3342 10.875 16.0481 10.875 15.7497V11.9997C10.875 11.7013 10.9935 11.4152 11.2045 11.2042C11.4155 10.9932 11.7016 10.8747 12 10.8747C12.2984 10.8747 12.5845 10.9932 12.7955 11.2042C13.0065 11.4152 13.125 11.7013 13.125 11.9997ZM15.7556 11.8881L15.3806 15.6381C15.3511 15.935 15.4406 16.2315 15.6296 16.4623C15.8186 16.6932 16.0916 16.8395 16.3884 16.8691C16.4259 16.8691 16.4644 16.8747 16.5009 16.8747C16.7798 16.8745 17.0487 16.7706 17.2553 16.5834C17.462 16.3961 17.5917 16.1388 17.6194 15.8613L17.9944 12.1113C18.0202 11.8163 17.9288 11.5231 17.7399 11.2952C17.551 11.0672 17.2798 10.9229 16.9852 10.8935C16.6906 10.8642 16.3964 10.9521 16.1662 11.1383C15.936 11.3245 15.7885 11.5939 15.7556 11.8881ZM8.24437 11.8881C8.21152 11.5939 8.06401 11.3245 7.83383 11.1383C7.60364 10.9521 7.30935 10.8642 7.01475 10.8935C6.72016 10.9229 6.44901 11.0672 6.26011 11.2952C6.0712 11.5231 5.97976 11.8163 6.00562 12.1113L6.38062 15.8613C6.4083 16.1389 6.53817 16.3964 6.74503 16.5837C6.95188 16.771 7.22096 16.8747 7.5 16.8747C7.53656 16.8747 7.575 16.8747 7.6125 16.8691C7.90937 16.8395 8.18232 16.6932 8.37132 16.4623C8.56031 16.2315 8.64988 15.935 8.62031 15.6381L8.24437 11.8881ZM22.8694 8.39877L21.4566 18.9925C21.3964 19.444 21.1744 19.8584 20.8318 20.1586C20.4892 20.4587 20.0493 20.6244 19.5938 20.6247H4.40625C3.95225 20.6234 3.51405 20.4579 3.17253 20.1588C2.83101 19.8597 2.60923 19.4471 2.54812 18.9972L1.13531 8.40346C1.11334 8.24422 1.12575 8.08212 1.17171 7.92809C1.21766 7.77405 1.2961 7.63165 1.40172 7.51048C1.50735 7.38931 1.63771 7.29218 1.78404 7.22563C1.93037 7.15909 2.08925 7.12467 2.25 7.12471H6.23906L11.1562 1.50908C11.2618 1.38844 11.392 1.29175 11.538 1.22551C11.684 1.15927 11.8425 1.125 12.0028 1.125C12.1631 1.125 12.3216 1.15927 12.4676 1.22551C12.6136 1.29175 12.7438 1.38844 12.8494 1.50908L17.7609 7.12471H21.75C21.9103 7.12476 22.0687 7.15907 22.2147 7.22534C22.3606 7.29161 22.4907 7.3883 22.5963 7.50893C22.7018 7.62957 22.7804 7.77138 22.8267 7.92484C22.873 8.07831 22.8859 8.23989 22.8647 8.39877H22.8694ZM9.22969 7.12471H14.7703L12 3.95783L9.22969 7.12471ZM20.4647 9.37471H3.53531L4.73531 18.3747H19.2666L20.4647 9.37471Z" fill="#960001"/>
</svg>
