<svg width="64" height="64" viewBox="0 0 64 64" fill="none" xmlns="http://www.w3.org/2000/svg">
<path d="M44.1225 23.8775C44.4022 24.1562 44.6241 24.4874 44.7755 24.852C44.9269 25.2167 45.0049 25.6077 45.0049 26.0025C45.0049 26.3973 44.9269 26.7883 44.7755 27.153C44.6241 27.5176 44.4022 27.8488 44.1225 28.1275L30.1225 42.1275C29.8438 42.4072 29.5126 42.6291 29.148 42.7805C28.7833 42.9319 28.3924 43.0099 27.9975 43.0099C27.6027 43.0099 27.2117 42.9319 26.8471 42.7805C26.4824 42.6291 26.1512 42.4072 25.8725 42.1275L19.8725 36.1275C19.5935 35.8484 19.3721 35.5172 19.2211 35.1525C19.07 34.7879 18.9923 34.3971 18.9923 34.0025C18.9923 33.6078 19.07 33.2171 19.2211 32.8525C19.3721 32.4879 19.5935 32.1566 19.8725 31.8775C20.1516 31.5984 20.4829 31.3771 20.8475 31.2261C21.2121 31.075 21.6029 30.9973 21.9975 30.9973C22.3922 30.9973 22.7829 31.075 23.1476 31.2261C23.5122 31.3771 23.8435 31.5984 24.1225 31.8775L28 35.75L39.8775 23.87C40.1566 23.5916 40.4879 23.3709 40.8523 23.2205C41.2168 23.0702 41.6073 22.9932 42.0016 22.9939C42.3958 22.9946 42.7861 23.073 43.15 23.2246C43.5139 23.3762 43.8444 23.5981 44.1225 23.8775ZM59 32C59 37.3401 57.4165 42.5603 54.4497 47.0004C51.4829 51.4405 47.2661 54.9012 42.3325 56.9447C37.3989 58.9883 31.9701 59.523 26.7326 58.4812C21.4951 57.4394 16.6841 54.8679 12.9081 51.0919C9.13211 47.3159 6.56061 42.5049 5.51881 37.2674C4.47701 32.0299 5.0117 26.6012 7.05526 21.6675C9.09883 16.7339 12.5595 12.5171 16.9996 9.55032C21.4397 6.58352 26.6599 5 32 5C39.1584 5.00794 46.0214 7.85513 51.0831 12.9169C56.1449 17.9786 58.9921 24.8416 59 32ZM53 32C53 27.8466 51.7684 23.7865 49.4609 20.333C47.1534 16.8796 43.8736 14.188 40.0364 12.5985C36.1991 11.0091 31.9767 10.5932 27.9031 11.4035C23.8295 12.2138 20.0877 14.2139 17.1508 17.1508C14.2139 20.0877 12.2138 23.8295 11.4035 27.9031C10.5932 31.9767 11.0091 36.1991 12.5985 40.0364C14.188 43.8736 16.8796 47.1534 20.333 49.4609C23.7865 51.7684 27.8466 53 32 53C37.5677 52.994 42.9057 50.7796 46.8427 46.8427C50.7796 42.9057 52.9941 37.5677 53 32Z" fill="#960001"/>
</svg>
