<svg viewBox="0 0 30 30" fill="none" xmlns="http://www.w3.org/2000/svg">
<rect width="30" height="30" rx="9" fill="white" fill-opacity="0.3"/>
<path d="M15.0218 10.1416C14.0576 10.1416 13.1151 10.4275 12.3134 10.9632C11.5117 11.4989 10.8869 12.2602 10.5179 13.151C10.1489 14.0418 10.0524 15.022 10.2405 15.9677C10.4286 16.9133 10.8929 17.782 11.5747 18.4637C12.2564 19.1455 13.1251 19.6098 14.0707 19.7979C15.0164 19.986 15.9966 19.8895 16.8874 19.5205C17.7782 19.1515 18.5395 18.5267 19.0752 17.725C19.6109 16.9233 19.8968 15.9808 19.8968 15.0166C19.8953 13.7241 19.3812 12.485 18.4673 11.5711C17.5534 10.6572 16.3143 10.1431 15.0218 10.1416ZM15.0218 17.6416C14.5026 17.6416 13.9951 17.4876 13.5634 17.1992C13.1317 16.9108 12.7953 16.5008 12.5966 16.0211C12.3979 15.5415 12.3459 15.0137 12.4472 14.5045C12.5485 13.9953 12.7985 13.5276 13.1656 13.1604C13.5328 12.7933 14.0005 12.5433 14.5097 12.442C15.0189 12.3407 15.5467 12.3927 16.0263 12.5914C16.506 12.7901 16.916 13.1265 17.2044 13.5582C17.4928 13.9899 17.6468 14.4974 17.6468 15.0166C17.6468 15.7128 17.3702 16.3805 16.878 16.8727C16.3857 17.365 15.718 17.6416 15.0218 17.6416ZM25.6962 12.9944C25.6644 12.8359 25.599 12.6862 25.5042 12.5553C25.4094 12.4244 25.2875 12.3155 25.1468 12.236L22.5415 10.75L22.5312 7.81472C22.5306 7.65186 22.4947 7.49106 22.4259 7.34344C22.3571 7.19582 22.2571 7.0649 22.1327 6.95972C21.0828 6.07141 19.874 5.39031 18.5702 4.95253C18.4215 4.90237 18.2639 4.88387 18.1077 4.89824C17.9514 4.91261 17.7998 4.95953 17.6627 5.03597L15.0218 6.51066L12.3809 5.03503C12.2436 4.95817 12.0918 4.91095 11.9351 4.89641C11.7785 4.88188 11.6205 4.90036 11.4715 4.95066C10.1674 5.39026 8.95851 6.07327 7.90898 6.96347C7.78505 7.06853 7.68535 7.19919 7.61673 7.34646C7.54811 7.49374 7.51221 7.65412 7.51148 7.81659L7.49836 10.7547L4.8968 12.2369C4.75609 12.3167 4.63425 12.426 4.53961 12.5572C4.44496 12.6884 4.37973 12.8385 4.34836 12.9972C4.08351 14.3314 4.08351 15.7046 4.34836 17.0388C4.37998 17.1972 4.44533 17.3469 4.53996 17.4777C4.6346 17.6086 4.7563 17.7176 4.8968 17.7972L7.50492 19.2832L7.51523 22.2185C7.5158 22.3813 7.55172 22.5421 7.62051 22.6897C7.68931 22.8374 7.78933 22.9683 7.91367 23.0735C8.96357 23.9618 10.1724 24.6429 11.4762 25.0807C11.6249 25.1308 11.7825 25.1493 11.9387 25.1349C12.095 25.1206 12.2466 25.0737 12.3837 24.9972L15.0218 23.5225L17.6599 24.9982C17.7972 25.075 17.949 25.1222 18.1057 25.1368C18.2623 25.1513 18.4202 25.1328 18.5693 25.0825C19.8734 24.6429 21.0823 23.9599 22.1318 23.0697C22.2557 22.9647 22.3554 22.834 22.424 22.6867C22.4927 22.5395 22.5286 22.3791 22.5293 22.2166L22.5424 19.2785L25.1496 17.7963C25.2903 17.7164 25.4122 17.6072 25.5068 17.476C25.6014 17.3448 25.6667 17.1947 25.698 17.036C25.9623 15.7017 25.9616 14.3285 25.6962 12.9944ZM23.5746 16.105L21.0546 17.5375C20.8756 17.639 20.728 17.7879 20.628 17.9678C20.5774 18.0616 20.524 18.1488 20.4687 18.2378C20.3576 18.4152 20.2982 18.6201 20.2971 18.8294L20.284 21.6728C19.6775 22.1292 19.0133 22.5034 18.3087 22.7857L15.7634 21.3616C15.5955 21.2676 15.4064 21.2182 15.214 21.2182H15.1868C15.0799 21.2182 14.9712 21.2182 14.8643 21.2182C14.6633 21.2134 14.4646 21.2623 14.2887 21.3597L11.7405 22.781C11.0348 22.5001 10.369 22.1276 9.76055 21.6728L9.75023 18.8378C9.74937 18.6282 9.68994 18.423 9.57867 18.2453C9.5243 18.1572 9.46992 18.0663 9.4193 17.9753C9.31929 17.7965 9.17205 17.6486 8.99367 17.5478L6.4718 16.1069C6.37383 15.384 6.37383 14.6511 6.4718 13.9282L8.9918 12.4957C9.17054 12.3942 9.31806 12.2457 9.41836 12.0663C9.46898 11.9725 9.52242 11.8844 9.57773 11.7953C9.68884 11.618 9.74825 11.4131 9.7493 11.2038L9.75961 8.36034C10.3663 7.90526 11.0305 7.53235 11.7349 7.25128L14.2802 8.67534C14.456 8.77398 14.6553 8.82322 14.8568 8.81784C14.9637 8.81784 15.0724 8.81784 15.1793 8.81784C15.3803 8.8226 15.579 8.77374 15.7549 8.67628L18.303 7.25222C19.0088 7.53306 19.6746 7.90563 20.283 8.36034L20.2934 11.1953C20.2942 11.405 20.3536 11.6102 20.4649 11.7878C20.5193 11.876 20.5737 11.9669 20.6243 12.0578C20.7243 12.2367 20.8715 12.3846 21.0499 12.4853L23.5718 13.9225C23.671 14.6466 23.672 15.3807 23.5746 16.105Z" fill="currentColor"/>
</svg>
