<svg width="14" height="14" viewBox="0 0 14 14" fill="none" xmlns="http://www.w3.org/2000/svg">
<path d="M6.33246 1.69324C6.531 1.0822 7.39545 1.0822 7.59398 1.69324L8.5267 4.56384C8.61549 4.8371 8.87014 5.02211 9.15746 5.02211H12.1758C12.8183 5.02211 13.0854 5.84425 12.5656 6.22189L10.1237 7.99602C9.89129 8.16491 9.79402 8.46426 9.88281 8.73752L10.8155 11.6081C11.0141 12.2192 10.3147 12.7273 9.79494 12.3496L7.35306 10.5755C7.12061 10.4066 6.80584 10.4066 6.57339 10.5755L4.13151 12.3496C3.61174 12.7273 2.91238 12.2192 3.11092 11.6081L4.04363 8.73752C4.13242 8.46426 4.03516 8.16491 3.80271 7.99602L1.36083 6.22189C0.841052 5.84425 1.10818 5.02211 1.75066 5.02211H4.76899C5.05631 5.02211 5.31096 4.8371 5.39975 4.56384L6.33246 1.69324Z" fill="#960001"/>
</svg>
