<svg width="375" height="140" viewBox="0 0 375 140" fill="none" xmlns="http://www.w3.org/2000/svg">
<g clip-path="url(#clip0_62_4455)">
<rect width="375" height="140" fill="#FFB2B3"/>
<g opacity="0.1">
<path d="M127.323 98.4429C125.194 97.9336 123.257 97.3606 121.274 97.0696C120.501 96.9605 119.483 97.3152 118.819 97.7699C113.08 101.717 107.459 105.81 101.693 109.721C93.8075 115.078 85.722 120.18 77.9185 125.628C69.2328 131.685 60.8199 138.079 52.1797 144.182C49.6149 145.992 46.7136 147.401 43.9033 148.893C43.1484 149.293 42.1752 149.42 41.2839 149.475C40.6927 149.511 40.0743 149.175 39.474 149.002C39.6923 148.456 39.7377 147.674 40.1561 147.41C42.7755 145.719 45.5858 144.291 48.1233 142.508C54.9991 137.661 61.6931 132.604 68.5871 127.783C78.2096 121.053 87.923 114.432 97.6274 107.802C103.33 103.9 109.096 100.071 114.826 96.2056C114.999 96.0873 115.126 95.9236 115.508 95.5416C112.298 94.7867 109.324 93.95 106.286 93.4771C105.358 93.3316 104.112 94.0137 103.248 94.6048C100.083 96.7967 97.0544 99.1523 93.9166 101.372C85.7948 107.101 76.818 111.494 67.814 115.823C64.2306 117.552 60.6562 119.307 57.0819 121.044C56.7272 121.217 56.3816 121.526 56.0269 121.535C55.4812 121.553 54.9173 121.371 54.3716 121.271C54.5444 120.826 54.5808 120.235 54.9173 119.971C57.0637 118.297 59.1556 116.533 61.4839 115.114C73.1982 107.956 84.9763 100.899 96.7452 93.8227C97.6911 93.2497 98.7461 92.8404 99.7556 92.3584C99.7192 92.1765 99.692 91.9946 99.6556 91.8127C96.8089 91.267 93.9712 90.6485 91.0972 90.2029C86.0131 89.4116 80.9017 88.7841 75.8176 88.0019C70.5152 87.1833 65.2492 86.1738 59.9377 85.4462C58.0642 85.1915 56.0905 85.5462 54.1624 85.5917C52.1342 85.6372 50.106 85.6372 48.0779 85.6645C46.0951 85.6827 44.1033 85.5826 42.1388 85.7736C40.811 85.9009 39.5377 86.4739 38.228 86.7832C37.6823 86.9105 37.1002 86.8741 36.5272 86.9105C36.8183 86.3921 36.982 85.5826 37.4276 85.4007C40.0288 84.3457 42.6209 83.0542 45.3675 82.5449C54.8536 80.7805 64.4488 80.1893 74.1168 80.9533C78.7007 81.3171 83.3028 81.5354 87.8958 81.8264C94.235 82.2266 100.501 82.9451 106.641 84.6367C108.878 85.2552 111.37 85.0187 113.707 85.3825C116.982 85.8918 120.219 86.6195 123.484 87.2106C127.323 87.9018 131.179 88.4748 134.999 89.2388C136.854 89.6117 138.673 90.2302 140.447 90.8577C147.841 93.4953 155.499 94.4411 163.348 93.9955C169.823 93.6317 176.117 92.3402 182.311 90.4939C187.122 89.0569 191.961 87.6654 197.118 87.9382C199.246 88.0474 201.374 88.1474 203.484 88.3566C203.948 88.4021 204.757 88.9569 204.721 89.166C204.603 89.83 204.33 90.785 203.811 91.0305C201.192 92.2584 198.536 93.4407 195.781 94.3502C192.543 95.4325 189.196 96.2147 185.676 97.1969C186.349 98.4702 186.877 99.5161 187.45 100.544C190.242 105.492 192.652 110.694 195.962 115.314C199.419 120.144 201.147 125.601 203.693 130.748C205.494 134.405 206.904 138.234 208.177 141.262C208.177 135.942 208.177 129.866 208.177 123.782C208.177 117.888 208.159 111.994 208.141 106.101C208.095 95.7053 208.05 85.3098 207.986 74.9142C207.959 70.6304 207.713 66.3376 207.859 62.063C208.259 50.194 213.816 41.2536 225.267 35.8148C226.449 35.2509 227.04 34.6052 227.031 33.2409C226.967 23.4547 227.049 13.6685 226.94 3.87318C226.922 2.34522 225.894 0.835449 225.876 -0.692509C225.803 -6.73159 225.921 -12.7798 226.031 -18.8188C226.058 -20.1103 226.713 -21.0016 228.332 -21.1017C232.533 -21.3654 236.726 -21.7565 240.937 -22.0294C241.719 -22.0839 242.529 -21.9384 243.302 -21.7656C247.886 -20.7561 248.486 -19.9193 248.331 -15.5264C248.204 -12.0431 248.304 -8.55968 248.222 -5.0763C248.022 3.1092 247.713 11.2856 247.586 19.4711C247.522 23.4729 247.777 27.4747 247.886 31.4765C247.904 32.2677 247.886 33.0681 247.886 34.1049C249.15 34.6325 250.669 35.1872 252.115 35.8694C261.255 40.1986 266.767 47.1563 268.722 56.5423C269.241 59.0252 269.432 61.5991 269.45 64.1275C269.623 85.7645 269.705 107.402 269.85 129.038C269.896 135.832 270.078 142.626 270.187 149.411C270.214 150.885 271.715 152.003 273.306 151.949C275.489 151.867 277.708 151.776 279.864 152.04C283.829 152.522 287.167 151.248 290.323 149.248C295.471 145.982 295.716 141.153 295.225 136.023C295.043 134.159 295.107 132.276 295.089 130.403C295.071 128.957 294.889 127.483 295.125 126.064C295.853 121.681 293.779 118.115 291.378 114.723C290.55 113.559 289.022 112.704 287.631 112.049C283.575 110.139 281.228 107.129 280.037 103.054C278.954 99.3706 278.709 95.7326 279.5 91.9946C279.709 91.0214 279.482 89.9846 279.646 89.0023C280.555 83.5817 281.519 78.1611 282.492 72.7496C282.792 71.0943 284.275 69.7664 286.03 69.4572C286.258 69.4208 286.485 69.3753 286.703 69.3662C293.825 69.1025 300.946 68.8478 308.067 68.5932C308.24 68.5932 308.413 68.6386 308.577 68.6114C309.359 68.4931 310.578 68.0202 310.832 68.3112C311.605 69.1753 312.224 70.2939 312.506 71.3944C314.143 77.8246 316.107 84.2184 317.044 90.7486C317.581 94.4593 316.744 98.3975 315.662 102.19C314.552 106.092 311.578 108.557 308.886 111.267C306.676 113.495 304.166 115.451 301.801 117.542C301.574 117.743 301.337 118.043 301.31 118.306C300.664 125.701 300.373 133.122 302.128 140.407C303.356 145.491 307.003 148.929 312.215 150.666C316.971 152.249 321.755 153.877 326.658 154.886C331.196 155.823 335.916 155.978 340.555 156.46C342.992 156.715 345.457 156.787 347.849 157.233C349.113 157.469 350.25 158.306 351.405 158.943C351.605 159.052 351.778 159.634 351.678 159.725C351.387 160.007 350.959 160.271 350.559 160.325C349.068 160.534 347.558 160.735 346.057 160.807C342.21 160.998 338.354 161.244 334.507 161.244C312.651 161.289 290.796 161.271 268.941 161.271C200.237 161.271 131.534 161.271 62.8299 161.271C51.8796 161.271 40.9292 161.298 29.9788 161.244C28.2417 161.244 26.5045 160.926 24.7856 160.662C24.4672 160.616 23.9488 160.007 24.0125 159.825C24.1489 159.461 24.6037 158.97 24.9766 158.934C34.4172 158.015 43.8032 156.705 53.1892 155.45C56.1542 155.05 59.0464 154.113 61.9659 153.413C68.0868 151.958 73.2619 148.611 78.4642 145.555C84.5852 141.962 90.4424 137.87 95.9448 133.468C99.501 130.63 102.284 126.901 105.313 123.5C112.443 115.505 119.51 107.465 126.604 99.4434C126.841 99.1796 127.022 98.8613 127.313 98.452L127.323 98.4429ZM230.396 2.09056C230.396 5.02824 230.305 7.90226 230.414 10.7763C230.687 17.7158 231.069 24.6552 231.378 31.5947C231.469 33.632 230.969 35.451 229.296 36.9699C226.804 39.2345 224.448 41.6265 222.02 43.9548C216.217 49.5028 212.879 56.033 212.97 63.9274C213.034 69.1207 213.207 74.3139 213.252 79.5072C213.407 96.3784 213.525 113.259 213.643 130.13C213.68 135.323 213.689 140.516 213.698 145.71C213.698 148.602 214.398 149.611 217.017 150.257C216.954 149.375 216.872 148.547 216.835 147.72C216.717 144.673 216.508 141.626 216.544 138.588C216.581 135.705 217.054 132.813 217.017 129.93C216.899 120.453 216.535 110.976 216.454 101.49C216.39 94.2047 216.572 86.9196 216.726 79.6345C216.735 79.1707 217.363 78.3976 217.8 78.3248C220.983 77.8337 224.184 77.2516 227.395 77.1516C233.77 76.9606 240.155 77.1061 246.54 77.0333C250.833 76.9879 255.116 76.7241 259.409 76.715C262.119 76.7059 262.911 77.5517 262.883 80.1529C262.82 86.7923 262.602 93.4316 262.62 100.071C262.638 108.584 262.729 117.106 262.974 125.619C263.129 130.912 263.62 136.205 263.957 141.499C264.011 142.29 264.048 143.081 264.039 143.882C264.011 145.591 263.802 147.31 263.993 148.993C264.066 149.602 265.066 150.112 265.648 150.666C266.23 150.112 267.231 149.62 267.322 149.002C267.604 147.156 267.631 145.264 267.586 143.4C267.476 139.061 267.213 134.732 267.122 130.394C266.958 121.99 266.885 113.577 266.749 105.164C266.558 93.4771 265.812 81.79 266.312 70.0848C266.431 67.3199 266.158 64.5277 265.93 61.7628C265.203 52.7497 260.692 46.1649 251.842 42.245C249.514 41.2172 247.458 39.6074 245.376 38.1431C244.83 37.752 244.393 36.9335 244.33 36.2786C243.957 32.2314 243.548 28.1841 243.438 24.1277C243.275 17.543 243.338 10.9582 243.302 4.36431C243.293 2.31793 243.147 2.15422 240.974 2.13604C237.508 2.09966 234.034 2.12694 230.387 2.12694L230.396 2.09056ZM163.148 102.117C163.302 103.163 163.43 104.009 163.548 104.846C164.03 108.284 164.758 111.713 164.949 115.169C165.24 120.671 165.185 126.183 165.258 131.694C165.312 136.023 165.349 140.353 165.376 144.682C165.394 147.283 165.376 149.884 165.376 152.876C172.434 152.44 179.1 152.022 185.758 151.612C185.476 150.43 185.276 149.62 185.094 148.811C183.975 143.8 183.157 138.716 181.692 133.795C179.555 126.61 176.927 119.552 174.58 112.422C173.543 109.266 172.697 106.055 171.715 102.881C171.515 102.245 171.57 101.299 170.324 101.435C168.014 101.681 165.703 101.872 163.139 102.108L163.148 102.117ZM223.12 132.586C223.257 132.586 223.384 132.586 223.52 132.586C223.52 134.941 223.338 137.315 223.575 139.652C223.811 142.026 224.23 144.427 224.985 146.692C225.63 148.62 227.604 149.53 229.396 149.311C231.478 149.057 233.507 147.438 233.843 145.591C234.08 144.336 234.225 143.036 234.189 141.762C234.025 136.305 233.598 130.857 233.588 125.4C233.561 113.359 233.661 101.317 233.834 89.2752C233.916 83.0451 230.332 80.6804 224.284 83.1815C224.23 83.1997 224.184 83.2452 224.13 83.2543C222.565 83.4635 222.383 84.4457 222.411 85.7099C222.674 101.344 222.902 116.979 223.138 132.604L223.12 132.586ZM81.3292 151.858C85.8676 151.858 90.1149 151.876 94.3532 151.831C94.7898 151.831 95.2627 151.439 95.6447 151.139C100.138 147.674 104.585 144.173 109.096 140.735C112.225 138.343 114.944 135.669 116.891 132.304C118.628 129.302 120.392 126.292 122.339 123.409C127.032 116.46 131.852 109.575 136.609 102.663C137.027 102.063 137.327 101.39 137.755 100.617C136.008 100.317 134.517 99.9891 132.998 99.8527C132.443 99.7981 131.624 100.044 131.279 100.426C125.267 107.083 119.328 113.786 113.344 120.462C106.995 127.547 100.756 134.723 94.2168 141.644C90.5242 145.555 86.486 149.211 81.3383 151.858H81.3292ZM177.409 99.9709C177.718 101.008 177.936 101.835 178.2 102.654C181.365 112.195 185.412 121.462 187.786 131.258C189.314 137.561 191.46 143.736 193.361 149.957C193.507 150.421 193.825 151.185 194.116 151.212C196.572 151.43 199.046 151.512 201.419 151.63C202.374 147.265 201.72 143.254 200.637 139.398C199.328 134.714 197.336 130.194 195.881 125.546C192.861 115.905 187.377 107.392 182.156 98.5885C180.683 99.025 179.137 99.4798 177.409 99.9891V99.9709ZM105.631 151.585C108.86 151.585 112.134 151.603 115.408 151.558C115.763 151.558 116.172 151.167 116.445 150.866C119.283 147.801 122.084 144.709 124.921 141.644C127.386 138.979 129.96 136.369 131.188 132.931C134.317 124.227 137.727 115.632 142.047 107.374C143.011 105.528 143.794 103.6 144.721 101.599C144.003 101.508 143.521 101.535 143.121 101.381C141.565 100.799 140.765 101.408 140.074 102.718C139.219 104.346 138.127 105.855 137.145 107.42C132.034 115.487 125.576 122.745 121.129 131.249C118.91 135.496 115.881 139.389 112.943 143.263C110.761 146.155 108.15 148.756 105.631 151.594V151.585ZM282.856 86.2738C283.047 86.4648 283.229 86.6558 283.42 86.8468C292.988 86.3284 302.556 85.81 311.915 85.3007C311.16 80.644 310.441 76.2602 309.732 71.8674C309.568 70.8487 309.031 70.4849 307.895 70.5122C301.01 70.6759 294.116 70.7487 287.231 70.9124C286.858 70.9124 286.303 71.4126 286.185 71.7855C285.848 72.8496 285.712 73.9683 285.457 75.0688C284.593 78.8068 283.72 82.5358 282.847 86.2738H282.856ZM158.7 102.19C158.055 102.163 157.663 102.126 157.272 102.126C154.08 102.09 153.962 102.099 154.126 105.128C154.353 109.411 153.889 113.613 153.08 117.815C152.243 122.217 151.342 126.619 150.788 131.058C150.387 134.268 149.86 137.397 148.341 140.307C147.859 141.235 146.886 141.962 146.558 142.917C145.594 145.682 144.84 148.502 143.966 151.439C147.895 151.803 151.861 152.176 155.526 152.522C157.727 135.705 158.982 119.07 158.709 102.19H158.7ZM130.306 151.276C133.443 151.276 136.336 151.312 139.219 151.23C139.61 151.221 140.137 150.648 140.319 150.23C141.183 148.256 142.084 146.292 142.711 144.245C143.366 142.108 144.221 139.862 144.094 137.715C143.666 130.33 144.612 123.163 147.677 116.378C149.751 111.785 150.297 106.965 151.206 102.181C148.15 101.581 148.041 101.653 147.332 103.354C145.658 107.374 143.921 111.367 142.211 115.369C141.22 117.688 139.974 119.962 139.364 122.372C138.691 125.009 138.591 127.774 138.273 130.485C137.473 137.324 135.817 143.882 131.361 149.548C130.997 150.012 130.742 150.548 130.297 151.267L130.306 151.276ZM283.647 95.8236C283.702 97.0423 283.766 97.9973 283.793 98.9614C283.993 105.519 293.606 111.612 301.055 108.475C301.792 108.165 302.592 107.602 302.947 106.956C303.274 106.356 303.347 105.273 302.974 104.809C302.674 104.437 301.528 104.637 300.755 104.646C300.3 104.646 299.846 104.837 299.409 104.791C298.472 104.691 297.544 104.382 296.599 104.364C292.415 104.264 288.759 101.999 287.558 98.2247C286.931 96.2329 287.058 94.0319 286.721 91.9491C286.621 91.3216 286.221 90.403 285.73 90.2484C284.702 89.9209 284.248 90.7395 284.129 91.6308C283.947 93.1133 283.784 94.5957 283.647 95.8418V95.8236Z" fill="white"/>
<path d="M62.9301 39.4988C65.2857 39.4988 67.6504 39.3442 69.9878 39.5261C78.7826 40.2264 87.341 41.9817 95.5356 45.1286C97.1636 45.7562 98.8007 46.4292 100.301 47.2841C111.634 53.6961 122.884 60.2445 134.28 66.5564C138.509 68.8938 143.084 70.6946 147.486 72.7501C150.56 74.178 153.625 73.2594 156.645 72.65C163.957 71.1767 170.478 67.9207 176.772 64.3099C183.939 60.1899 190.924 55.797 197.945 51.4496C199.364 50.5765 200.528 49.3487 201.874 48.3664C202.311 48.0481 202.938 47.9753 203.484 47.7934C203.575 48.3755 203.866 48.994 203.729 49.5215C202.902 52.732 200.528 55.024 197.8 56.7247C191.515 60.6447 185.076 64.3463 178.582 67.957C173.307 70.8856 167.85 73.505 161.802 74.8237C160.792 75.042 159.783 75.2785 158.818 75.7969C172.679 78.8437 186.494 79.0075 200.373 76.0152C200.701 77.7251 200.855 79.3622 198.973 80.2626C197.418 81.0084 195.799 81.7541 194.116 82.0997C189.25 83.082 184.366 84.1007 179.437 84.6191C176.208 84.9556 172.852 84.6191 169.587 84.2916C149.378 82.2362 131.743 74.4145 115.745 62.9548C115.063 62.4728 114.371 61.9816 113.762 61.4268C105.877 54.2327 96.0176 50.4128 85.8312 47.2659C81.9841 46.0745 77.8913 45.5743 73.9987 44.501C71.7431 43.8826 69.6694 42.7002 67.4867 41.8362C66.3498 41.3906 65.1311 41.0995 63.9669 40.6993C63.5303 40.5447 63.1483 40.2719 62.7482 40.0536C62.8027 39.8717 62.8573 39.6989 62.9119 39.517L62.9301 39.4988Z" fill="white"/>
<path d="M157.491 47.0563C158.055 56.7243 148.496 61.5265 141.475 62.1358C140.611 62.2086 139.619 61.9994 138.837 61.6265C136.345 60.4623 133.88 59.2345 131.488 57.8885C129.078 56.5333 128.369 54.1231 127.832 51.7584C126.568 46.1741 127.123 40.9445 131.834 36.7881C136.127 33.0045 141.22 31.1401 147.023 32.6771C152.971 34.2505 155.799 38.6434 157.091 44.0368C157.327 45.019 157.364 46.0468 157.491 47.0563Z" fill="white"/>
<path d="M305.212 126.704C315.234 134.508 325.757 141.238 338.008 145.34C340.582 146.204 343.065 147.286 345.621 148.187C346.639 148.551 346.912 148.996 346.567 149.979C345.884 151.888 344.575 152.634 342.474 152.034C340.946 151.597 339.409 151.152 337.972 150.515C328.749 146.395 319.573 142.202 311.942 135.627C310.559 134.435 309.113 133.235 308.049 131.807C306.903 130.27 306.157 128.451 305.212 126.695V126.704Z" fill="white"/>
<path d="M308.176 37.3418C305.484 41.8256 303.165 46.173 300.337 50.2021C299.009 52.0939 296.835 53.5582 294.816 54.9133C290.851 57.5691 286.749 60.052 282.638 62.5076C282.001 62.8896 280.992 63.8719 280.164 62.6168C279.618 61.7891 280.191 59.9156 281.064 59.2971C282.656 58.1784 284.211 57.0052 285.839 55.932C291.642 52.1303 296.244 47.1462 301.101 42.4077C302.792 40.7615 304.711 39.3154 306.576 37.8238C306.93 37.5419 307.513 37.5328 308.176 37.3418Z" fill="white"/>
<path d="M294.462 142.113C293.807 142.868 293.288 143.968 292.397 144.387C291.133 144.996 289.914 144.614 288.896 143.368C283.029 136.147 277.518 128.752 274.917 119.839C274.698 119.103 274.844 118.266 274.826 117.475C275.444 118.075 276.235 118.593 276.663 119.303C280.428 125.487 284.621 131.381 289.941 136.501C291.087 137.602 292.415 138.548 293.507 139.694C293.98 140.194 294.052 141.031 294.462 142.122V142.113Z" fill="white"/>
</g>
</g>
<defs>
<clipPath id="clip0_62_4455">
<rect width="375" height="140" fill="white"/>
</clipPath>
</defs>
</svg>
