<svg width="120" height="120" viewBox="0 0 120 120" fill="none" xmlns="http://www.w3.org/2000/svg">
<g clip-path="url(#clip0_6_287)">
<path d="M53.8626 96.5067V96.6584H53.9977C54.1852 96.6584 54.3617 96.7383 54.5216 96.9038C54.6815 97.0692 54.698 97.3035 54.5712 97.6068L51.9988 103.863L49.4265 97.6482H49.4347C49.3217 97.3477 49.3382 97.1133 49.4816 96.9451C49.625 96.7769 49.7904 96.6942 49.9779 96.6915H50.113V96.5398L45.379 96.5784V96.7301H45.5003C45.7292 96.7301 45.9635 96.799 46.2089 96.9424C46.4543 97.0857 46.6556 97.3283 46.8182 97.6702L51.3592 107.411H51.4943C51.5025 107.298 51.5384 107.146 51.6018 106.948C51.6652 106.752 51.7397 106.545 51.8279 106.333C51.9161 106.121 51.9961 105.93 52.0678 105.765C52.1422 105.597 52.1863 105.484 52.2056 105.423L55.6161 97.5985H55.6272C55.7843 97.2539 55.9828 97.0085 56.2254 96.8596C56.4681 96.7108 56.6969 96.6363 56.9147 96.6363H57.0498V96.4847L53.8654 96.5095L53.8626 96.5067Z" fill="white"/>
<path d="M61.6707 106.871C61.4115 106.871 61.191 106.782 61.0062 106.598C60.8215 106.413 60.7223 106.19 60.7112 105.928L60.6451 97.5572C60.6533 97.2953 60.7471 97.0692 60.929 96.8817C61.111 96.6942 61.3316 96.5977 61.588 96.5977C61.7066 96.5977 61.7727 96.5977 61.781 96.5977V96.4461L60.5899 96.4544L58.4477 96.4709L57.2566 96.4792V96.6308H57.4523C57.7115 96.6308 57.9321 96.7191 58.1168 96.9038C58.3015 97.0885 58.4008 97.3118 58.4118 97.5738L58.478 105.944C58.4697 106.206 58.376 106.432 58.194 106.62C58.012 106.807 57.7915 106.904 57.5351 106.904H57.3421V107.055L58.489 107.047L60.6754 107.031L61.8665 107.022V106.871C61.8665 106.871 61.792 106.871 61.6707 106.871Z" fill="white"/>
<path d="M73.6283 96.3496L71.544 96.3662L70.3088 96.3772V96.5288C70.3088 96.5288 70.4136 96.5288 70.5928 96.5288C70.8492 96.5288 71.067 96.6143 71.2435 96.788C71.4172 96.9617 71.5109 97.1823 71.5247 97.4442L71.5716 103.416L63.9978 96.2035H63.8489C63.973 96.8983 64.0392 97.5269 64.0419 98.0921L64.1053 105.933C64.1053 106.184 64.0199 106.402 63.8434 106.584C63.667 106.766 63.4547 106.86 63.2065 106.86C63.1955 106.86 63.1017 106.86 62.9253 106.86V107.011L64.1605 107L66.2007 106.984L67.4359 106.973V106.821C67.2567 106.821 67.163 106.821 67.1519 106.821C66.9038 106.821 66.6887 106.736 66.5095 106.554C66.3303 106.374 66.2393 106.157 66.2366 105.906L66.1787 99.9173L73.7635 107.13H73.8985C73.8379 106.807 73.7883 106.498 73.7579 106.201C73.7276 105.903 73.7083 105.569 73.7055 105.197L73.6449 97.4139C73.6532 97.1519 73.7441 96.9314 73.9234 96.7549C74.0998 96.5785 74.3121 96.4875 74.5602 96.4847H74.8277V96.3303L73.6366 96.3386L73.6283 96.3496Z" fill="white"/>
<path d="M19.1756 90.3612C18.8144 90.364 18.4449 90.2509 18.0645 90.0221C17.7639 89.8401 17.4965 89.5589 17.2649 89.1812L10.0165 73.4464H9.80419C9.80419 73.6229 9.75181 73.8682 9.64428 74.1798C9.53675 74.4913 9.4182 74.8167 9.28586 75.153C9.15627 75.4894 9.0322 75.7899 8.9164 76.0546C8.80061 76.3193 8.72065 76.4985 8.67378 76.595L3.27262 89.2749C3.05206 89.6664 2.78737 89.9614 2.47858 90.1489C2.09534 90.3833 1.72313 90.5018 1.36195 90.5046H1.14966V90.7444L6.19239 90.7058V90.466H5.97734C5.78986 90.466 5.59962 90.4081 5.40938 90.2923C5.21914 90.1765 5.08404 90.0028 5.00408 89.7822C4.92688 89.5727 4.94618 89.3163 5.05371 89.0185L6.25856 86.016L11.7893 85.9719L12.9693 88.9055H12.9638C13.1568 89.3824 13.1348 89.7546 12.9004 90.0193C12.6661 90.284 12.3931 90.4191 12.0788 90.4219H11.8665V90.6617L19.3603 90.6011V90.3612H19.1701H19.1756ZM6.66386 85.0042L9.02945 79.1095L11.3868 84.9683L6.66386 85.0069V85.0042Z" fill="white"/>
<path d="M31.6819 82.054C31.0423 81.6763 30.3309 81.4585 29.5452 81.4006C30.0304 81.3344 30.4936 81.1635 30.932 80.8878C31.3704 80.6121 31.7233 80.2206 31.9962 79.7077C32.2664 79.1949 32.3988 78.5718 32.3932 77.8384C32.385 76.8652 32.1203 76.0822 31.5964 75.4866C31.0726 74.8939 30.3585 74.461 29.4542 74.188C28.5471 73.9151 27.5214 73.7855 26.3745 73.7938L24.9132 73.8048L21.3786 73.8324L19.5645 73.8462V74.086C19.5975 74.086 19.6527 74.086 19.7299 74.086C19.8071 74.086 19.8567 74.086 19.8705 74.086C20.2785 74.0833 20.6287 74.2266 20.9237 74.5216C21.216 74.8139 21.3731 75.1696 21.3924 75.5831L21.4972 88.8365C21.4834 89.2528 21.3345 89.6085 21.045 89.9035C20.7555 90.2013 20.4081 90.3501 20.0001 90.3557C19.9835 90.3557 19.9367 90.3557 19.8595 90.3557C19.7795 90.3557 19.7271 90.3557 19.694 90.3557V90.5955L21.511 90.5817L25.0456 90.5542L27.1658 90.5376C28.4864 90.5266 29.6417 90.3419 30.637 89.9834C31.6323 89.625 32.4015 89.0957 32.9447 88.3981C33.4878 87.7006 33.758 86.8404 33.7497 85.8202C33.7442 84.96 33.5567 84.2101 33.19 83.576C32.8233 82.9418 32.3216 82.4345 31.6819 82.0568V82.054ZM29.2529 87.7667C28.9524 88.343 28.5305 88.7703 27.9901 89.046C27.4498 89.3217 26.8267 89.4624 26.1208 89.4679L25.0373 89.4761L24.9215 74.8332L25.6053 74.8277C26.2008 74.8222 26.7302 74.9297 27.1878 75.1503C27.6455 75.3708 27.9984 75.7265 28.2438 76.2173C28.4919 76.7108 28.6188 77.3642 28.6243 78.1776C28.6298 78.7676 28.5554 79.2749 28.401 79.6995C28.2466 80.1241 28.0343 80.4632 27.7613 80.7224C27.4884 80.9788 27.1796 81.169 26.8349 81.2931C26.4903 81.4144 26.1374 81.4778 25.7762 81.4806V81.6956C26.2973 81.6929 26.7908 81.759 27.265 81.8996C27.7365 82.0402 28.1528 82.2636 28.5085 82.5724C28.8642 82.8812 29.1509 83.2809 29.3659 83.7745C29.581 84.268 29.694 84.8635 29.6996 85.5666C29.7078 86.4599 29.5589 87.196 29.2584 87.7723L29.2529 87.7667Z" fill="white"/>
<path d="M47.0885 85.7596C47.1298 84.8663 46.9617 84.086 46.5867 83.4188C46.2117 82.7516 45.6631 82.2139 44.9352 81.8059L40.4108 78.8751C39.92 78.5773 39.5175 78.252 39.2004 77.9046C38.8834 77.5572 38.7317 77.1436 38.7427 76.6639C38.7703 76.027 39.0598 75.4811 39.614 75.0289C40.1682 74.5768 40.9016 74.3479 41.8114 74.3424C42.8177 74.3341 43.6228 74.5795 44.2321 75.0758C44.8414 75.5721 45.1475 76.2365 45.1558 77.0664H45.3929L45.6493 73.8324C45.6493 73.8324 45.6493 73.8324 45.6465 73.8324L45.6713 73.5456L44.0888 73.5594C43.9289 73.5401 43.7634 73.5208 43.587 73.5043C43.0907 73.4519 42.611 73.4133 42.1478 73.3829C41.6846 73.3554 41.2958 73.3416 40.9815 73.3443C39.9917 73.3526 39.1398 73.5346 38.4284 73.8902C37.7171 74.2459 37.1574 74.7422 36.7549 75.3736C36.3523 76.0077 36.1125 76.7383 36.0408 77.5682C35.9691 78.445 36.1263 79.2583 36.5067 80.0055C36.89 80.7527 37.4993 81.362 38.3347 81.8334L42.4814 84.5768C43.1431 84.9379 43.6228 85.3184 43.9151 85.7127C44.2073 86.1097 44.359 86.5536 44.3617 87.0499C44.3672 87.7833 44.0888 88.4119 43.5291 88.9357C42.9666 89.4596 42.1671 89.7325 41.1304 89.7573C40.1875 89.7822 39.3741 89.5919 38.6876 89.1894C38.0011 88.7868 37.4772 88.2409 37.1188 87.5517C36.7604 86.8596 36.6088 86.1069 36.6639 85.2936H36.4516C36.2503 85.6327 36.0849 86.0573 35.9553 86.5674C35.8257 87.0802 35.7541 87.582 35.743 88.0755C35.732 88.569 35.7899 88.9936 35.9167 89.341C36.2172 89.6416 36.6198 89.898 37.1243 90.1103C37.6289 90.3226 38.2079 90.4852 38.8613 90.5983C39.5147 90.7141 40.1847 90.7664 40.8767 90.7609C42.7626 90.7471 44.2514 90.3005 45.3432 89.421C46.4351 88.5442 47.014 87.3228 47.0802 85.7596H47.0885Z" fill="white"/>
<path d="M58.4808 90.0496H58.2685V90.2895L65.7623 90.2288V89.989H65.5721C65.2109 89.9917 64.8414 89.8787 64.4609 89.6498C64.1604 89.4679 63.893 89.1866 63.6614 88.8089L56.413 73.0742H56.2007C56.2007 73.2506 56.1483 73.496 56.0408 73.8075C55.9332 74.1191 55.8147 74.4444 55.6823 74.7808C55.5528 75.1172 55.4287 75.4177 55.3129 75.6824C55.1971 75.9471 55.1171 76.1263 55.0703 76.2228L49.6691 88.9027C49.4485 89.2942 49.1839 89.5892 48.8751 89.7767C48.4918 90.011 48.1196 90.1296 47.7584 90.1323H47.5461V90.3722L52.5889 90.3336V90.0937H52.3738C52.1863 90.0937 51.9961 90.0358 51.8059 89.92C51.6156 89.8015 51.4805 89.6305 51.4006 89.41C51.3234 89.2004 51.3427 88.944 51.4502 88.6462L52.655 85.6438L58.1858 85.5997L59.3658 88.5332H59.3603C59.5533 89.0102 59.5313 89.3824 59.2969 89.6471C59.0625 89.9117 58.7896 90.0468 58.4753 90.0496H58.4808ZM53.0631 84.6374L55.4287 78.7428L57.786 84.6016L53.0631 84.6402V84.6374Z" fill="white"/>
<path d="M78.1141 87.298C77.695 87.8825 77.1877 88.3347 76.5922 88.649C75.9966 88.9661 75.3074 89.126 74.5216 89.1315L71.4337 89.1563L71.3234 75.1833C71.3372 74.7698 71.486 74.4141 71.7755 74.1164C72.065 73.8186 72.4124 73.6697 72.8205 73.6642C73.0107 73.6642 73.11 73.6642 73.1265 73.6642V73.4243L71.3096 73.4381L67.775 73.4657L65.9608 73.4795V73.7193H66.2696C66.6777 73.7166 67.0278 73.8599 67.3228 74.1549C67.6151 74.4472 67.7722 74.8029 67.7915 75.2164L67.8963 88.4698C67.8825 88.8861 67.7336 89.2418 67.4441 89.5368C67.1546 89.8346 66.8072 89.9835 66.3992 89.989H66.0932V90.2316L67.979 90.2178L71.4419 90.1902L75.7651 90.1571L78.2988 90.1378L79.3438 85.2247H79.1067C78.8613 86.027 78.5304 86.719 78.1113 87.3035L78.1141 87.298Z" fill="white"/>
<path d="M94.6594 73.984C93.2643 73.2864 91.6211 72.9446 89.738 72.9583C87.8521 72.9721 86.2171 73.3416 84.8331 74.0612C83.449 74.7808 82.3848 75.7954 81.6403 77.1023C80.8959 78.4091 80.532 79.9559 80.5458 81.7397C80.5596 83.5429 80.9483 85.0868 81.7148 86.3716C82.4785 87.6564 83.5593 88.649 84.9544 89.3493C86.3495 90.0496 87.99 90.3915 89.8758 90.3749C91.7617 90.3612 93.3966 89.9917 94.7807 89.2721C96.1647 88.5525 97.2345 87.5379 97.9844 86.231C98.7371 84.9242 99.1066 83.3802 99.09 81.5936C99.0762 79.7904 98.682 78.2465 97.91 76.9617C97.138 75.6769 96.0545 74.6843 94.6594 73.984ZM94.5739 85.721C94.1438 86.8734 93.529 87.7667 92.7322 88.4036C91.9354 89.0405 90.9786 89.3631 89.8648 89.3714C88.7647 89.3796 87.808 89.0736 86.9946 88.4477C86.1813 87.8246 85.5499 86.9396 85.1005 85.7954C84.6511 84.6512 84.4223 83.2892 84.4085 81.7094C84.3947 80.1296 84.6042 78.7648 85.0343 77.6123C85.4645 76.4599 86.082 75.5666 86.8871 74.9297C87.6922 74.2928 88.6434 73.9702 89.7435 73.9619C90.8573 73.9537 91.8196 74.2597 92.6246 74.8856C93.4297 75.5087 94.0583 76.3937 94.5077 77.5379C94.9571 78.6821 95.1887 80.0441 95.1998 81.6239C95.2136 83.2037 95.0013 84.5685 94.5711 85.721H94.5739Z" fill="white"/>
<path d="M119.244 73.0576L117.29 73.0742L114.061 73.099L112.106 73.1155V73.3554C112.123 73.3554 112.275 73.3554 112.556 73.3526C112.964 73.3499 113.306 73.4877 113.584 73.7634C113.863 74.0419 114.009 74.3865 114.028 74.8001L114.102 84.2569L102.112 72.837H101.877C102.076 73.9371 102.178 74.9352 102.184 75.8285L102.283 88.2465C102.286 88.6462 102.148 88.9881 101.866 89.2776C101.585 89.5671 101.249 89.7132 100.857 89.716C100.841 89.716 100.692 89.716 100.408 89.7188V89.9586L102.366 89.9421L105.666 89.9173L107.552 89.9035V89.6636C107.268 89.6636 107.116 89.6664 107.102 89.6664C106.711 89.6691 106.372 89.5285 106.085 89.2445C105.801 88.9606 105.655 88.6187 105.652 88.2189H105.649L105.558 78.74L117.568 90.1599H117.78C117.681 89.6498 117.607 89.1591 117.557 88.6876C117.507 88.2189 117.48 87.6868 117.474 87.0968L117.378 74.7753C117.389 74.3617 117.538 74.0116 117.816 73.7303C118.098 73.4491 118.434 73.3057 118.825 73.303H119.25V73.0604L119.244 73.0576Z" fill="white"/>
<path d="M40.59 51.2462C39.9449 51.0918 39.3576 50.9181 38.7565 50.8299C38.5222 50.7968 38.2134 50.9043 38.0121 51.0422C36.2724 52.2388 34.5685 53.4795 32.8205 54.665C30.4301 56.289 27.979 57.8357 25.6135 59.4872C22.9804 61.3234 20.4301 63.2617 17.8109 65.1117C17.0334 65.6603 16.1539 66.0877 15.3019 66.5399C15.0731 66.6612 14.7781 66.6998 14.5079 66.7163C14.3287 66.7273 14.1412 66.6253 13.9592 66.5729C14.0254 66.4075 14.0392 66.1704 14.166 66.0904C14.96 65.5776 15.812 65.1448 16.5812 64.6044C18.6656 63.1348 20.6948 61.6019 22.7847 60.1406C25.7017 58.1004 28.6463 56.0932 31.5881 54.0833C33.3168 52.9005 35.0648 51.7397 36.8018 50.568C36.8541 50.5321 36.8927 50.4825 37.0085 50.3667C36.0353 50.1379 35.1337 49.8842 34.2128 49.7409C33.9316 49.6967 33.5539 49.9035 33.292 50.0827C32.3325 50.7472 31.4144 51.4613 30.4632 52.134C28.0011 53.871 25.2798 55.2027 22.5503 56.515C21.464 57.0389 20.3805 57.571 19.2969 58.0976C19.1894 58.15 19.0846 58.2437 18.9771 58.2465C18.8117 58.252 18.6408 58.1969 18.4753 58.1665C18.5277 58.0314 18.5387 57.8522 18.6408 57.7723C19.2914 57.265 19.9256 56.7301 20.6314 56.3C24.1825 54.1301 27.753 51.9906 31.3207 49.8456C31.6074 49.6719 31.9272 49.5479 32.2333 49.4017C32.2222 49.3466 32.214 49.2914 32.2029 49.2363C31.34 49.0709 30.4797 48.8834 29.6085 48.7483C28.0673 48.5084 26.5178 48.3182 24.9766 48.0811C23.3692 47.8329 21.7728 47.5269 20.1627 47.3063C19.5947 47.2291 18.9964 47.3367 18.4119 47.3504C17.7971 47.3642 17.1822 47.3642 16.5674 47.3725C15.9664 47.378 15.3626 47.3477 14.767 47.4056C14.3645 47.4442 13.9785 47.6179 13.5815 47.7116C13.4161 47.7502 13.2396 47.7392 13.0659 47.7502C13.1541 47.5931 13.2038 47.3477 13.3389 47.2925C14.1274 46.9727 14.9132 46.5812 15.7458 46.4268C18.6215 45.8919 21.5302 45.7127 24.461 45.9443C25.8506 46.0546 27.2457 46.1208 28.638 46.209C30.5597 46.3303 32.4593 46.5481 34.3204 47.061C34.9986 47.2484 35.7541 47.1768 36.4626 47.287C37.4552 47.4414 38.4367 47.662 39.4265 47.8412C40.59 48.0508 41.759 48.2244 42.917 48.456C43.4795 48.5691 44.0309 48.7566 44.5685 48.9468C46.81 49.7464 49.1315 50.0331 51.5109 49.898C53.4739 49.7877 55.3818 49.3962 57.2594 48.8365C58.7179 48.4009 60.1847 47.9791 61.748 48.0618C62.3932 48.0949 63.0383 48.1252 63.678 48.1886C63.8186 48.2024 64.064 48.3706 64.0529 48.434C64.0171 48.6353 63.9344 48.9248 63.7772 48.9992C62.9832 49.3714 62.1781 49.7298 61.3427 50.0055C60.3612 50.3336 59.3466 50.5707 58.2796 50.8685C58.4836 51.2545 58.6435 51.5716 58.8172 51.8831C59.6636 53.383 60.3943 54.96 61.3978 56.3606C62.4455 57.8247 62.9694 59.4789 63.7414 61.0394C64.2873 62.1478 64.7146 63.3085 65.1006 64.2266C65.1006 62.6137 65.1006 60.772 65.1006 58.9275C65.1006 57.1409 65.0951 55.3543 65.0896 53.5677C65.0758 50.4163 65.062 47.265 65.0427 44.1136C65.0345 42.815 64.96 41.5137 65.0041 40.2178C65.1254 36.6198 66.81 33.9096 70.2812 32.2608C70.6396 32.0899 70.8188 31.8942 70.8161 31.4806C70.7968 28.5139 70.8216 25.5473 70.7885 22.5779C70.783 22.1147 70.4715 21.657 70.4659 21.1939C70.4439 19.3631 70.4797 17.5297 70.5128 15.699C70.5211 15.3074 70.7196 15.0373 71.2104 15.0069C72.4841 14.927 73.7552 14.8084 75.0317 14.7257C75.2688 14.7092 75.5142 14.7533 75.7485 14.8057C77.1381 15.1117 77.3201 15.3653 77.2732 16.697C77.2346 17.753 77.2649 18.809 77.2401 19.8649C77.1795 22.3463 77.0857 24.825 77.0471 27.3063C77.0278 28.5195 77.105 29.7326 77.1381 30.9457C77.1436 31.1856 77.1381 31.4282 77.1381 31.7425C77.5213 31.9024 77.9818 32.0706 78.4202 32.2774C81.191 33.5898 82.8619 35.6989 83.4546 38.5443C83.6118 39.297 83.6697 40.0772 83.6752 40.8437C83.7276 47.4028 83.7524 53.962 83.7965 60.5211C83.8103 62.5807 83.8654 64.6402 83.8985 66.697C83.9068 67.1437 84.3617 67.4828 84.8442 67.4662C85.5059 67.4414 86.1786 67.4139 86.8321 67.4938C88.0342 67.6399 89.046 67.2539 90.0027 66.6474C91.5633 65.6576 91.6377 64.1936 91.4888 62.6386C91.4337 62.0734 91.453 61.5026 91.4475 60.9347C91.4419 60.4963 91.3868 60.0496 91.4585 59.6195C91.6791 58.2906 91.0504 57.2098 90.3226 56.1814C90.0717 55.8285 89.6085 55.5694 89.1866 55.3708C87.957 54.7919 87.2456 53.8793 86.8845 52.6441C86.5564 51.5275 86.4819 50.4246 86.7218 49.2914C86.7852 48.9964 86.7163 48.6821 86.7659 48.3844C87.0416 46.7411 87.3339 45.0979 87.6289 43.4574C87.7199 42.9556 88.1693 42.5531 88.7014 42.4594C88.7703 42.4483 88.8392 42.4345 88.9054 42.4318C91.0642 42.3518 93.223 42.2746 95.3818 42.1974C95.4342 42.1974 95.4866 42.2112 95.5362 42.2029C95.7733 42.1671 96.1428 42.0237 96.22 42.112C96.4543 42.3739 96.6418 42.713 96.7273 43.0466C97.2236 44.9959 97.8191 46.9341 98.1031 48.9137C98.2658 50.0386 98.0121 51.2324 97.684 52.3822C97.3476 53.5649 96.4461 54.3121 95.63 55.1337C94.96 55.8092 94.199 56.402 93.4822 57.0361C93.4133 57.0968 93.3416 57.1878 93.3333 57.2677C93.1376 59.5093 93.0493 61.759 93.5815 63.9675C93.9537 65.5087 95.0593 66.5509 96.6391 67.0775C98.081 67.5572 99.5313 68.0507 101.017 68.3568C102.393 68.6408 103.824 68.6876 105.23 68.8338C105.969 68.911 106.716 68.933 107.441 69.0681C107.825 69.1398 108.169 69.3934 108.519 69.5864C108.58 69.6195 108.632 69.796 108.602 69.8236C108.514 69.909 108.384 69.989 108.263 70.0055C107.811 70.0689 107.353 70.1296 106.898 70.1517C105.732 70.2096 104.563 70.284 103.397 70.284C96.7714 70.2978 90.1461 70.2923 83.5208 70.2923C62.6937 70.2923 41.8666 70.2923 21.0394 70.2923C17.7199 70.2923 14.4003 70.3005 11.0808 70.284C10.5542 70.284 10.0276 70.1875 9.50649 70.1075C9.40999 70.0938 9.25283 69.909 9.27213 69.8539C9.31349 69.7436 9.45134 69.5947 9.56438 69.5837C12.4263 69.3052 15.2716 68.9082 18.1169 68.5277C19.0157 68.4064 19.8925 68.1224 20.7775 67.9101C22.633 67.469 24.2018 66.4544 25.7789 65.528C27.6344 64.4389 29.41 63.1982 31.078 61.8638C32.1561 61.0036 32.9997 59.8732 33.9178 58.842C36.0794 56.4185 38.2217 53.9813 40.3722 51.5495C40.4439 51.4696 40.499 51.3731 40.5873 51.249L40.59 51.2462ZM71.8362 22.0375C71.8362 22.9281 71.8086 23.7993 71.8417 24.6706C71.9244 26.7742 72.0402 28.8779 72.134 30.9816C72.1616 31.5991 72.0099 32.1506 71.5026 32.611C70.7472 33.2975 70.0331 34.0226 69.2969 34.7284C67.5379 36.4103 66.526 38.3899 66.5536 40.783C66.5729 42.3573 66.6253 43.9316 66.6391 45.5059C66.686 50.6204 66.7218 55.7375 66.7576 60.852C66.7687 62.4263 66.7714 64.0006 66.7742 65.5749C66.7742 66.4516 66.9865 66.7577 67.7805 66.9534C67.7612 66.686 67.7364 66.4351 67.7254 66.1842C67.6895 65.2606 67.6261 64.3369 67.6372 63.4161C67.6482 62.5421 67.7915 61.6653 67.7805 60.7913C67.7447 57.9184 67.6344 55.0455 67.6096 52.1699C67.5903 49.9614 67.6454 47.753 67.6923 45.5445C67.6951 45.4039 67.8853 45.1696 68.0176 45.1475C68.9826 44.9986 69.9531 44.8222 70.9264 44.7919C72.8591 44.734 74.7946 44.7781 76.7301 44.756C78.0314 44.7422 79.33 44.6623 80.6314 44.6595C81.453 44.6568 81.6928 44.9132 81.6846 45.7017C81.6653 47.7144 81.5991 49.7271 81.6046 51.7397C81.6101 54.3204 81.6377 56.9038 81.7121 59.4844C81.759 61.0891 81.9079 62.6937 82.0099 64.2983C82.0265 64.5382 82.0375 64.7781 82.0347 65.0207C82.0265 65.539 81.963 66.0601 82.0209 66.5702C82.043 66.7549 82.3463 66.9093 82.5227 67.0775C82.6992 66.9093 83.0025 66.7604 83.03 66.5729C83.1155 66.0132 83.1238 65.4398 83.11 64.8746C83.0769 63.5594 82.9969 62.2471 82.9694 60.9319C82.9197 58.3844 82.8977 55.834 82.8563 53.2837C82.7984 49.7408 82.5724 46.198 82.724 42.6496C82.7598 41.8114 82.6771 40.965 82.6082 40.1268C82.3876 37.3946 81.0201 35.3984 78.3375 34.2101C77.6316 33.8986 77.0085 33.4106 76.3772 32.9667C76.2117 32.8481 76.0794 32.6 76.0601 32.4015C75.947 31.1745 75.823 29.9476 75.7899 28.718C75.7403 26.7218 75.7596 24.7257 75.7485 22.7268C75.7458 22.1065 75.7017 22.0568 75.0427 22.0513C73.9923 22.0403 72.9391 22.0486 71.8335 22.0486L71.8362 22.0375ZM51.4502 52.3601C51.4971 52.6772 51.5357 52.9336 51.5715 53.1872C51.7177 54.2294 51.9382 55.2688 51.9961 56.3165C52.0844 57.9846 52.0678 59.6554 52.0899 61.3262C52.1064 62.6386 52.1174 63.9509 52.1257 65.2633C52.1312 66.0518 52.1257 66.8404 52.1257 67.7475C54.2652 67.6151 56.2862 67.4883 58.3044 67.3642C58.2189 67.0058 58.1582 66.7604 58.1031 66.515C57.764 64.9959 57.5158 63.4547 57.0719 61.9631C56.424 59.785 55.6272 57.6455 54.9159 55.4839C54.6016 54.5272 54.3452 53.5539 54.0474 52.5917C53.9868 52.3987 54.0033 52.112 53.6256 52.1533C52.9253 52.2278 52.225 52.2856 51.4475 52.3573L51.4502 52.3601ZM69.6305 61.5964C69.6719 61.5964 69.7105 61.5964 69.7519 61.5964C69.7519 62.3105 69.6967 63.0301 69.7684 63.7386C69.8401 64.4582 69.9669 65.1861 70.1957 65.8726C70.3915 66.4571 70.9898 66.7328 71.5329 66.6667C72.1643 66.5895 72.7791 66.0987 72.8812 65.539C72.9528 65.1585 72.997 64.7643 72.9859 64.3783C72.9363 62.724 72.8067 61.0725 72.804 59.4183C72.7957 55.7679 72.826 52.1175 72.8784 48.4671C72.9032 46.5785 71.8169 45.8616 69.9834 46.6198C69.9669 46.6253 69.9531 46.6391 69.9366 46.6419C69.4624 46.7053 69.4072 47.0031 69.4155 47.3863C69.4954 52.1257 69.5644 56.8652 69.6361 61.6019L69.6305 61.5964ZM26.6474 67.4387C28.0232 67.4387 29.3107 67.4442 30.5955 67.4304C30.7279 67.4304 30.8712 67.3118 30.987 67.2209C32.349 66.1704 33.6973 65.1089 35.0648 64.0667C36.0132 63.3416 36.8376 62.531 37.4276 61.5109C37.9542 60.6011 38.4891 59.6885 39.0791 58.8145C40.5018 56.708 41.9631 54.6209 43.405 52.5255C43.5318 52.3435 43.6228 52.1395 43.7524 51.9052C43.223 51.8142 42.7709 51.7149 42.3104 51.6736C42.1423 51.657 41.8941 51.7315 41.7894 51.8473C39.9669 53.8655 38.1665 55.8975 36.3524 57.9212C34.4279 60.0689 32.5365 62.2443 30.5542 64.3424C29.4348 65.528 28.2106 66.6364 26.6501 67.4387H26.6474ZM55.7734 51.7094C55.8671 52.0237 55.9333 52.2746 56.0132 52.5228C56.9727 55.415 58.1996 58.2244 58.9192 61.1938C59.3824 63.1045 60.0331 64.9766 60.6093 66.8624C60.6534 67.003 60.7499 67.2346 60.8381 67.2429C61.5826 67.3091 62.3325 67.3339 63.0521 67.3697C63.3416 66.0463 63.1431 64.8304 62.815 63.6614C62.418 62.2415 61.8142 60.8713 61.373 59.4624C60.4577 56.5399 58.7951 53.9592 57.2126 51.2903C56.7659 51.4227 56.2972 51.5605 55.7734 51.7149V51.7094ZM34.0143 67.356C34.9931 67.356 35.9857 67.3615 36.9782 67.3477C37.0857 67.3477 37.2098 67.2291 37.2925 67.1381C38.1527 66.209 39.0019 65.2716 39.8621 64.3424C40.6093 63.5346 41.3896 62.7433 41.7618 61.7011C42.7102 59.0626 43.7441 56.4571 45.0538 53.9537C45.346 53.394 45.5831 52.8095 45.8643 52.2029C45.6465 52.1754 45.5004 52.1836 45.3791 52.1368C44.9076 51.9603 44.665 52.145 44.4555 52.5421C44.1963 53.0356 43.8655 53.4933 43.5677 53.9675C42.0182 56.413 40.0607 58.6132 38.7124 61.1911C38.0397 62.4786 37.1216 63.6587 36.231 64.8332C35.5693 65.71 34.7781 66.4985 34.0143 67.3587V67.356ZM87.7392 47.5572C87.7971 47.6151 87.8522 47.673 87.9101 47.7309C90.8106 47.5738 93.711 47.4166 96.5481 47.2622C96.3192 45.8506 96.1014 44.5217 95.8864 43.19C95.8368 42.8812 95.6741 42.7709 95.3295 42.7792C93.2423 42.8288 91.1525 42.8509 89.0653 42.9005C88.9523 42.9005 88.7841 43.0521 88.7483 43.1652C88.6462 43.4878 88.6049 43.8269 88.5277 44.1605C88.2658 45.2937 88.0011 46.4241 87.7364 47.5572H87.7392ZM50.102 52.3822C49.9062 52.3739 49.7877 52.3629 49.6691 52.3629C48.7014 52.3518 48.6656 52.3546 48.7152 53.2727C48.7841 54.5713 48.6435 55.8451 48.3981 57.1188C48.1445 58.4533 47.8715 59.7877 47.7033 61.1332C47.582 62.1064 47.4221 63.0549 46.9617 63.9371C46.8155 64.2184 46.5205 64.4389 46.4213 64.7284C46.129 65.5666 45.9002 66.4213 45.6355 67.3118C46.8266 67.4221 48.0287 67.5352 49.1398 67.6399C49.807 62.5421 50.1875 57.4993 50.1048 52.3822H50.102ZM41.4943 67.2622C42.4455 67.2622 43.3223 67.2732 44.1963 67.2484C44.3149 67.2457 44.4748 67.072 44.5299 66.9451C44.7918 66.3469 45.0648 65.7513 45.255 65.131C45.4535 64.4831 45.7127 63.8021 45.6741 63.1514C45.5445 60.9126 45.8313 58.74 46.7604 56.6832C47.389 55.2909 47.5544 53.8296 47.8302 52.3794C46.9038 52.1974 46.8707 52.2195 46.6556 52.7351C46.1483 53.9537 45.6217 55.1641 45.1034 56.3772C44.8029 57.0802 44.4251 57.7695 44.2404 58.5001C44.0364 59.2997 44.0061 60.1379 43.9096 60.9595C43.6669 63.0328 43.1651 65.0207 41.8142 66.7384C41.7039 66.879 41.6267 67.0416 41.4916 67.2595L41.4943 67.2622ZM87.979 50.4522C87.9956 50.8216 88.0149 51.1111 88.0231 51.4034C88.0838 53.3913 90.998 55.2385 93.2561 54.2873C93.4794 54.1936 93.7221 54.0226 93.8296 53.8269C93.9288 53.6449 93.9509 53.3168 93.8379 53.1762C93.7469 53.0632 93.3995 53.1238 93.1651 53.1266C93.0273 53.1266 92.8894 53.1845 92.7571 53.1707C92.4731 53.1404 92.1919 53.0466 91.9051 53.0411C90.6369 53.0108 89.5285 52.3243 89.1646 51.1801C88.9743 50.5763 89.0129 49.909 88.9109 49.2777C88.8806 49.0874 88.7593 48.809 88.6104 48.7621C88.2989 48.6628 88.161 48.911 88.1252 49.1812C88.07 49.6306 88.0204 50.08 87.979 50.4577V50.4522Z" fill="white"/>
<path d="M21.0698 33.3775C21.7839 33.3775 22.5007 33.3306 23.2093 33.3857C25.8754 33.598 28.4698 34.1302 30.954 35.0841C31.4475 35.2744 31.9438 35.4784 32.3987 35.7375C35.8341 37.6813 39.2446 39.6664 42.6992 41.5798C43.9813 42.2884 45.3681 42.8343 46.7025 43.4574C47.6344 43.8903 48.5636 43.6118 49.4789 43.4271C51.6956 42.9804 53.6725 41.9934 55.5804 40.8988C57.753 39.6499 59.8704 38.3182 61.9989 37.0003C62.429 36.7356 62.7819 36.3634 63.19 36.0656C63.3223 35.9691 63.5126 35.9471 63.678 35.8919C63.7056 36.0684 63.7938 36.2559 63.7524 36.4158C63.5015 37.389 62.7819 38.0838 61.9548 38.5994C60.0496 39.7877 58.0976 40.9099 56.1291 42.0044C54.5299 42.8922 52.8757 43.6863 51.0422 44.086C50.7362 44.1522 50.4301 44.2239 50.1379 44.381C54.3397 45.3047 58.5277 45.3543 62.7351 44.4472C62.8343 44.9656 62.8812 45.4618 62.3105 45.7348C61.839 45.9609 61.3482 46.1869 60.8382 46.2917C59.3631 46.5895 57.8826 46.8983 56.3882 47.0554C55.4094 47.1574 54.3921 47.0554 53.4023 46.9562C47.276 46.3331 41.93 43.962 37.0803 40.488C36.8735 40.3419 36.6639 40.193 36.4792 40.0248C34.0888 37.844 31.1001 36.686 28.0122 35.732C26.8459 35.3709 25.6052 35.2192 24.4252 34.8939C23.7414 34.7064 23.1128 34.348 22.4511 34.086C22.1065 33.9509 21.737 33.8627 21.3841 33.7414C21.2518 33.6945 21.136 33.6118 21.0146 33.5457C21.0312 33.4905 21.0477 33.4381 21.0643 33.383L21.0698 33.3775Z" fill="white"/>
<path d="M49.7353 35.6686C49.9062 38.5994 47.0085 40.0552 44.8801 40.2399C44.6181 40.2619 44.3176 40.1985 44.0805 40.0855C43.3251 39.7326 42.5779 39.3604 41.8528 38.9523C41.1221 38.5415 40.9071 37.8109 40.7444 37.094C40.3612 35.4012 40.5294 33.8158 41.9575 32.5558C43.2589 31.4089 44.8029 30.8437 46.5619 31.3096C48.365 31.7866 49.2225 33.1183 49.614 34.7533C49.6857 35.051 49.6967 35.3626 49.7353 35.6686Z" fill="white"/>
<path d="M94.5161 59.8125C97.5544 62.1781 100.744 64.2184 104.458 65.4618C105.238 65.7237 105.991 66.0518 106.766 66.3248C107.075 66.4351 107.157 66.5702 107.053 66.8679C106.846 67.4469 106.449 67.673 105.812 67.491C105.349 67.3587 104.883 67.2236 104.447 67.0306C101.651 65.7816 98.8696 64.5106 96.5564 62.5172C96.1373 62.156 95.6989 61.7921 95.3763 61.3592C95.0289 60.8933 94.8029 60.3419 94.5161 59.8098V59.8125Z" fill="white"/>
<path d="M95.4149 32.724C94.5988 34.0832 93.8957 35.4011 93.0382 36.6225C92.6357 37.196 91.9768 37.6399 91.3647 38.0507C90.1626 38.8558 88.9191 39.6085 87.6729 40.3529C87.4799 40.4687 87.1739 40.7665 86.923 40.386C86.7576 40.1351 86.9313 39.5671 87.1959 39.3796C87.6784 39.0405 88.1499 38.6848 88.6434 38.3595C90.4025 37.207 91.7975 35.6962 93.2698 34.2597C93.7827 33.7607 94.3644 33.3223 94.9296 32.8701C95.0371 32.7847 95.2136 32.7819 95.4149 32.724Z" fill="white"/>
<path d="M91.2572 64.483C91.0587 64.7119 90.9015 65.0455 90.6313 65.1723C90.2481 65.357 89.8787 65.2412 89.5699 64.8635C87.7915 62.6744 86.1207 60.4328 85.3322 57.7309C85.266 57.5076 85.3101 57.2539 85.3046 57.014C85.4921 57.196 85.732 57.3532 85.8616 57.5682C87.003 59.443 88.274 61.2296 89.8869 62.7819C90.2343 63.1155 90.6369 63.4022 90.9677 63.7496C91.1111 63.9013 91.1331 64.1549 91.2572 64.4858V64.483Z" fill="white"/>
<path d="M6.88999 60C6.88999 30.7141 30.7141 6.88999 60 6.88999C89.2859 6.88999 113.11 30.7141 113.11 60C113.11 63.4877 112.763 66.8955 112.117 70.1957H119.115C119.686 66.8789 120 63.4767 120 60C120 26.9148 93.0852 0 60 0C26.9148 0 0 26.9148 0 60C0 63.4767 0.314309 66.8789 0.885029 70.1957H7.88255C7.23739 66.8955 6.88999 63.4877 6.88999 60Z" fill="white"/>
<path d="M60 113.11C43.8599 113.11 29.3907 105.864 19.6416 94.4664H10.9319C21.8004 109.892 39.7353 120 60 120C80.2646 120 98.1996 109.892 109.068 94.4664H100.358C90.6093 105.864 76.1373 113.11 60 113.11Z" fill="white"/>
</g>
<defs>
<clipPath id="clip0_6_287">
<rect width="120" height="120" fill="white"/>
</clipPath>
</defs>
</svg>
