<svg width="16" height="16" viewBox="0 0 16 16" fill="none" xmlns="http://www.w3.org/2000/svg">
<path d="M7.36631 1.22428C7.63239 0.710222 8.36761 0.710222 8.63369 1.22428L9.82716 3.53005C9.97244 3.81074 10.2851 3.96241 10.5954 3.90279L13.1028 3.42114C13.6632 3.31351 14.1169 3.87449 13.8946 4.39996L12.8558 6.85458C12.7364 7.13671 12.8104 7.46357 13.0397 7.66673L15.0168 9.41849C15.4403 9.79379 15.2794 10.4892 14.734 10.6402L12.2365 11.3318C11.9371 11.4147 11.7257 11.6817 11.7139 11.9921L11.6126 14.6354C11.5905 15.2113 10.9301 15.5248 10.47 15.1778L8.4296 13.6393C8.1753 13.4475 7.8247 13.4475 7.5704 13.6393L5.53002 15.1778C5.06986 15.5248 4.40945 15.2113 4.38739 14.6354L4.28614 11.9921C4.27425 11.6817 4.06291 11.4147 3.76354 11.3318L1.26601 10.6402C0.720621 10.4892 0.559655 9.79379 0.983216 9.41849L2.96027 7.66673C3.18957 7.46357 3.26359 7.13671 3.14419 6.85458L2.10543 4.39996C1.88306 3.87449 2.33681 3.31351 2.89715 3.42114L5.40455 3.90279C5.71494 3.96241 6.02756 3.81074 6.17285 3.53005L7.36631 1.22428Z" fill="#960001"/>
</svg>
