<svg width="20" height="20" viewBox="0 0 20 20" fill="none" xmlns="http://www.w3.org/2000/svg">
<path d="M18.0413 17.1877C17.9864 17.2827 17.9075 17.3616 17.8124 17.4165C17.7174 17.4713 17.6096 17.5002 17.4998 17.5002H2.49985C2.39019 17.5001 2.28249 17.4711 2.18757 17.4162C2.09265 17.3613 2.01384 17.2824 1.95906 17.1874C1.90428 17.0924 1.87546 16.9847 1.87549 16.875C1.87552 16.7654 1.90439 16.6576 1.95922 16.5627C3.14907 14.5056 4.98266 13.0306 7.1225 12.3314C6.06404 11.7013 5.24168 10.7412 4.78171 9.59845C4.32174 8.45573 4.2496 7.19361 4.57636 6.00592C4.90313 4.81823 5.61072 3.77064 6.59049 3.02402C7.57026 2.2774 8.76803 1.87305 9.99985 1.87305C11.2317 1.87305 12.4294 2.2774 13.4092 3.02402C14.389 3.77064 15.0966 4.81823 15.4233 6.00592C15.7501 7.19361 15.678 8.45573 15.218 9.59845C14.758 10.7412 13.9357 11.7013 12.8772 12.3314C15.017 13.0306 16.8506 14.5056 18.0405 16.5627C18.0954 16.6576 18.1245 16.7654 18.1246 16.8751C18.1247 16.9848 18.096 17.0926 18.0413 17.1877Z" fill="#9B9999"/>
</svg>
