<svg width="54" height="57" viewBox="0 0 54 57" fill="none" xmlns="http://www.w3.org/2000/svg">
<path d="M49.4825 49.485L45.07 50.6675L42.465 40.945C44.5254 39.9132 46.167 38.2024 47.1129 36.1011C48.0588 33.9998 48.2512 31.6366 47.6575 29.41C44.5075 17.66 37.9625 7.35501 37.685 6.92251C37.4592 6.56956 37.1283 6.29644 36.7389 6.14168C36.3496 5.98693 35.9215 5.95836 35.515 6.06001L30.05 7.42751C30.05 5.36501 30.005 4.07001 29.9975 3.90751C29.9776 3.47787 29.8196 3.0661 29.5472 2.73329C29.2747 2.40049 28.9023 2.16439 28.485 2.06001L20.485 0.0600103C20.0785 -0.0416404 19.6504 -0.0130718 19.2611 0.141683C18.8717 0.296439 18.5408 0.569565 18.315 0.92251C18.0375 1.35501 11.4925 11.655 8.3425 23.4225C7.74884 25.6491 7.94117 28.0123 8.88707 30.1136C9.83297 32.2149 11.4746 33.9257 13.535 34.9575L10.93 44.6675L6.5175 43.485C6.00497 43.3478 5.45891 43.4197 4.99944 43.6851C4.53998 43.9505 4.20475 44.3875 4.0675 44.9C3.93025 45.4125 4.00222 45.9586 4.26759 46.4181C4.53295 46.8775 4.96997 47.2128 5.4825 47.35L17.4825 50.565C17.6514 50.6094 17.8253 50.6321 18 50.6325C18.4856 50.6331 18.9549 50.4569 19.3202 50.1369C19.6855 49.8169 19.9218 49.3749 19.9852 48.8935C20.0486 48.412 19.9346 47.9239 19.6645 47.5203C19.3944 47.1167 18.9867 46.8251 18.5175 46.7L14.7925 45.7L17.3975 35.9775C17.6 35.99 17.8 35.9975 18 35.9975C19.9842 35.9919 21.9221 35.398 23.5686 34.2908C25.2151 33.1836 26.4963 31.613 27.25 29.7775C27.545 31.37 27.9 32.9825 28.3275 34.5825C28.8998 36.7104 30.1576 38.5903 31.9061 39.9312C33.6547 41.2721 35.7965 41.9992 38 42C38.2 42 38.4 42 38.6025 41.98L41.2075 51.7025L37.4825 52.7025C37.0154 52.8294 36.6102 53.1214 36.342 53.5243C36.0739 53.9273 35.9609 54.4138 36.0241 54.8936C36.0873 55.3735 36.3223 55.8142 36.6857 56.1339C37.049 56.4537 37.516 56.6308 38 56.6325C38.1747 56.6321 38.3486 56.6094 38.5175 56.565L50.5175 53.35C51.03 53.2128 51.467 52.8775 51.7324 52.4181C51.9978 51.9586 52.0697 51.4125 51.9325 50.9C51.7952 50.3875 51.46 49.9505 51.0006 49.6851C50.5411 49.4197 49.995 49.3478 49.4825 49.485ZM35.055 10.2975C35.75 11.4725 36.8625 13.4325 38.105 15.9125L30 17.9425C29.895 15.4425 29.905 13.38 29.9375 11.995C29.9375 11.855 29.95 11.715 29.9575 11.575L35.055 10.2975ZM20.945 4.29751L26.0375 5.57001C26.0525 6.64001 26.0375 8.23751 25.985 10.1875C25.97 10.49 25.945 10.985 25.9275 11.6475C25.9275 11.8975 25.9025 12.1475 25.8875 12.3975L17.6725 10.3575C19 7.66751 20.21 5.54001 20.945 4.29751ZM42.21 6.89501C42.0923 6.65998 42.0221 6.40405 42.0034 6.14185C41.9846 5.87966 42.0178 5.61635 42.1009 5.36698C42.184 5.11761 42.3155 4.88707 42.4878 4.68855C42.6601 4.49003 42.8698 4.32741 43.105 4.21001L47.105 2.21001C47.3401 2.09248 47.596 2.02239 47.8581 2.00376C48.1203 1.98513 48.3835 2.01832 48.6329 2.10143C48.8822 2.18454 49.1127 2.31594 49.3112 2.48813C49.5098 2.66033 49.6725 2.86994 49.79 3.10501C49.9075 3.34008 49.9776 3.59599 49.9962 3.85814C50.0149 4.12029 49.9817 4.38355 49.8986 4.63287C49.8155 4.8822 49.6841 5.11271 49.5119 5.31125C49.3397 5.5098 49.1301 5.67248 48.895 5.79001L44.895 7.79001C44.66 7.90772 44.404 7.97793 44.1418 7.99665C43.8797 8.01537 43.6163 7.98222 43.367 7.8991C43.1176 7.81597 42.8871 7.68451 42.6885 7.51222C42.49 7.33993 42.3274 7.13019 42.21 6.89501ZM54 14C54 14.5304 53.7893 15.0392 53.4142 15.4142C53.0391 15.7893 52.5304 16 52 16H48C47.4696 16 46.9609 15.7893 46.5858 15.4142C46.2107 15.0392 46 14.5304 46 14C46 13.4696 46.2107 12.9609 46.5858 12.5858C46.9609 12.2107 47.4696 12 48 12H52C52.5304 12 53.0391 12.2107 53.4142 12.5858C53.7893 12.9609 54 13.4696 54 14ZM4.21 1.10501C4.3274 0.869827 4.49002 0.660093 4.68854 0.487803C4.88706 0.315514 5.1176 0.184048 5.36697 0.100925C5.61634 0.0178014 5.87965 -0.0153496 6.14184 0.00336822C6.40404 0.022086 6.65997 0.0923055 6.895 0.21001L10.895 2.21001C11.1301 2.32754 11.3397 2.49023 11.5119 2.68877C11.6841 2.88731 11.8155 3.11782 11.8986 3.36715C11.9817 3.61647 12.0149 3.87973 11.9962 4.14188C11.9776 4.40403 11.9075 4.65995 11.79 4.89501C11.6725 5.13008 11.5098 5.33969 11.3112 5.51189C11.1127 5.68408 10.8822 5.81548 10.6329 5.89859C10.1293 6.06644 9.57974 6.02738 9.105 5.79001L5.105 3.79001C4.86982 3.67261 4.66008 3.50999 4.48779 3.31147C4.3155 3.11295 4.18404 2.88241 4.10091 2.63304C4.01779 2.38367 3.98464 2.12036 4.00336 1.85817C4.02208 1.59597 4.0923 1.34004 4.21 1.10501ZM6 14H2C1.46957 14 0.960859 13.7893 0.585786 13.4142C0.210714 13.0392 0 12.5304 0 12C0 11.4696 0.210714 10.9609 0.585786 10.5858C0.960859 10.2107 1.46957 10 2 10H6C6.53043 10 7.03914 10.2107 7.41421 10.5858C7.78929 10.9609 8 11.4696 8 12C8 12.5304 7.78929 13.0392 7.41421 13.4142C7.03914 13.7893 6.53043 14 6 14Z" fill="#960001"/>
</svg>
