<svg viewBox="0 0 30 30" fill="none" xmlns="http://www.w3.org/2000/svg">
<path d="M24.0621 12.1488L21.5109 3.48516C21.4538 3.29105 21.3353 3.12065 21.1733 2.99941C21.0113 2.87817 20.8145 2.8126 20.6121 2.8125H9.38789C9.18554 2.8126 8.98866 2.87817 8.82666 2.99941C8.66466 3.12065 8.54623 3.29105 8.48906 3.48516L5.93789 12.1488C5.53763 13.4767 5.51668 14.8901 5.87741 16.2293C6.23815 17.5685 6.96619 18.7801 7.9793 19.7273C9.64592 21.29 11.7871 22.2507 14.0625 22.4566V27.1875H10.3125C10.0639 27.1875 9.8254 27.2863 9.64959 27.4621C9.47377 27.6379 9.375 27.8764 9.375 28.125C9.375 28.3736 9.47377 28.6121 9.64959 28.7879C9.8254 28.9637 10.0639 29.0625 10.3125 29.0625H19.6875C19.9361 29.0625 20.1746 28.9637 20.3504 28.7879C20.5262 28.6121 20.625 28.3736 20.625 28.125C20.625 27.8764 20.5262 27.6379 20.3504 27.4621C20.1746 27.2863 19.9361 27.1875 19.6875 27.1875H15.9375V22.4566C18.2129 22.2509 20.3542 21.2902 22.0207 19.7273C23.0336 18.78 23.7615 17.5684 24.1222 16.2292C24.4829 14.8901 24.4621 13.4768 24.0621 12.1488ZM10.0887 4.6875H19.9113L22.2656 12.6785C22.2762 12.7137 22.2855 12.7488 22.2949 12.784C19.7848 13.684 16.9582 12.5965 15.4242 11.8195C12.4723 10.3254 10.1285 10.1355 8.4 10.4215L10.0887 4.6875ZM20.7422 18.3574C19.1855 19.8151 17.1326 20.6261 15 20.6261C12.8674 20.6261 10.8145 19.8151 9.25781 18.3574C8.4997 17.647 7.95531 16.7387 7.68612 15.7353C7.41692 14.7318 7.43363 13.673 7.73438 12.6785L7.78711 12.5004C9.19336 12.0246 11.4281 11.898 14.5758 13.493C15.8824 14.1551 17.993 14.9988 20.2512 14.9988C21.0059 15.0025 21.7574 14.8999 22.4836 14.6941C22.3879 16.0917 21.7656 17.4009 20.7422 18.3574Z" fill="currentColor"/>
</svg>
